<svg xmlns="http://www.w3.org/2000/svg" viewBox="0 0 100 100">
  <rect width="100" height="100" rx="18" fill="#fbf9f4"/>
  <g transform="translate(50 50) scale(0.56) translate(-100.35 -99.4)">
    <path fill="#0a0a0a" d="m40 150v-101.22h40.46q21.21 0 30.91 6.89 9.69 6.9 9.69 19.85 0 7-3.5 12.39-3.5 5.39-12.88 10.01 6.65 1.96 10.47 4.97 3.81 3.01 5.56 6.44 1.75 3.43 2.24 6.82 0.49 3.4 0.49 6.27 0 14.14-9.35 20.86-9.34 6.72-31.39 6.72zm27.23-61.74h17.15q4.83 0 7.67-2.63 2.83-2.62 2.83-6.61 0-4.55-3.32-7.18-3.33-2.62-8.16-2.62h-16.17zm0 41.3h16.45q6.02 0 9.03-3.25 3.01-3.26 3.01-7.25 0-4.2-3.08-7-3.08-2.8-8.26-2.8h-17.15z"/>
    <rect x="132" y="122.56" width="28.7" height="27.44" fill="#1A48C2"/>
  </g>
</svg>
